<mxfile host="app.diagrams.net" agent="Mozilla/5.0 (Macintosh; Intel Mac OS X 10_15_7) AppleWebKit/537.36 (KHTML, like Gecko) Chrome/134.0.0.0 Safari/537.36" version="26.1.0">
  <diagram id="mgxURrTsN07XKQPWaSAE" name="第 1 页">
    <mxGraphModel dx="630" dy="437" grid="1" gridSize="10" guides="1" tooltips="1" connect="1" arrows="1" fold="1" page="1" pageScale="1" pageWidth="827" pageHeight="1169" math="1" shadow="0">
      <root>
        <mxCell id="0" />
        <mxCell id="1" parent="0" />
        <mxCell id="O5yFB1qFTjXJkyLV4BU7-18" style="edgeStyle=orthogonalEdgeStyle;rounded=0;orthogonalLoop=1;jettySize=auto;html=1;exitX=0.5;exitY=1;exitDx=0;exitDy=0;entryX=0.5;entryY=0;entryDx=0;entryDy=0;strokeWidth=2;" parent="1" source="2" target="O5yFB1qFTjXJkyLV4BU7-3" edge="1">
          <mxGeometry relative="1" as="geometry" />
        </mxCell>
        <mxCell id="2" value="&lt;font style=&quot;font-size: 24px;&quot; face=&quot;宋体&quot;&gt;中断产生&lt;/font&gt;" style="rounded=0;whiteSpace=wrap;html=1;strokeWidth=2;fillColor=none;" parent="1" vertex="1">
          <mxGeometry x="265" y="300" width="120" height="50" as="geometry" />
        </mxCell>
        <mxCell id="O5yFB1qFTjXJkyLV4BU7-19" style="edgeStyle=orthogonalEdgeStyle;rounded=0;orthogonalLoop=1;jettySize=auto;html=1;exitX=0.5;exitY=1;exitDx=0;exitDy=0;entryX=0.5;entryY=0;entryDx=0;entryDy=0;strokeWidth=2;" parent="1" source="O5yFB1qFTjXJkyLV4BU7-3" target="O5yFB1qFTjXJkyLV4BU7-39" edge="1">
          <mxGeometry relative="1" as="geometry">
            <mxPoint x="325" y="550" as="targetPoint" />
          </mxGeometry>
        </mxCell>
        <mxCell id="O5yFB1qFTjXJkyLV4BU7-33" value="&lt;font style=&quot;font-size: 24px;&quot; face=&quot;宋体&quot;&gt;是&lt;/font&gt;" style="edgeLabel;html=1;align=center;verticalAlign=middle;resizable=0;points=[];" parent="O5yFB1qFTjXJkyLV4BU7-19" vertex="1" connectable="0">
          <mxGeometry x="-0.1897" y="2" relative="1" as="geometry">
            <mxPoint x="18" as="offset" />
          </mxGeometry>
        </mxCell>
        <mxCell id="O5yFB1qFTjXJkyLV4BU7-28" style="edgeStyle=orthogonalEdgeStyle;rounded=0;orthogonalLoop=1;jettySize=auto;html=1;exitX=1;exitY=0.5;exitDx=0;exitDy=0;entryX=0;entryY=0.5;entryDx=0;entryDy=0;strokeWidth=2;" parent="1" source="O5yFB1qFTjXJkyLV4BU7-3" target="O5yFB1qFTjXJkyLV4BU7-25" edge="1">
          <mxGeometry relative="1" as="geometry" />
        </mxCell>
        <mxCell id="O5yFB1qFTjXJkyLV4BU7-31" value="&lt;font style=&quot;font-size: 24px;&quot; face=&quot;宋体&quot;&gt;否&lt;/font&gt;" style="edgeLabel;html=1;align=center;verticalAlign=middle;resizable=0;points=[];" parent="O5yFB1qFTjXJkyLV4BU7-28" vertex="1" connectable="0">
          <mxGeometry x="-0.3333" y="4" relative="1" as="geometry">
            <mxPoint as="offset" />
          </mxGeometry>
        </mxCell>
        <mxCell id="O5yFB1qFTjXJkyLV4BU7-3" value="&lt;span style=&quot;font-size: 24px;&quot;&gt;&lt;font face=&quot;宋体&quot;&gt;是否使能&lt;/font&gt;&lt;/span&gt;&lt;div&gt;&lt;span style=&quot;font-size: 24px;&quot;&gt;&lt;font face=&quot;宋体&quot;&gt;中断&lt;/font&gt;&lt;/span&gt;&lt;/div&gt;" style="rhombus;whiteSpace=wrap;html=1;strokeWidth=2;align=center;" parent="1" vertex="1">
          <mxGeometry x="210" y="380" width="230" height="120" as="geometry" />
        </mxCell>
        <mxCell id="O5yFB1qFTjXJkyLV4BU7-25" value="&lt;font style=&quot;font-size: 24px;&quot; face=&quot;宋体&quot;&gt;不响应&lt;/font&gt;" style="rounded=0;whiteSpace=wrap;html=1;strokeWidth=2;fillColor=none;" parent="1" vertex="1">
          <mxGeometry x="530" y="410" width="120" height="60" as="geometry" />
        </mxCell>
        <mxCell id="O5yFB1qFTjXJkyLV4BU7-38" value="&lt;font face=&quot;宋体&quot;&gt;&lt;span style=&quot;font-size: 24px;&quot;&gt;重调度&lt;/span&gt;&lt;/font&gt;" style="rounded=0;whiteSpace=wrap;html=1;strokeWidth=2;fillColor=none;" parent="1" vertex="1">
          <mxGeometry x="265" y="630" width="120" height="50" as="geometry" />
        </mxCell>
        <mxCell id="O5yFB1qFTjXJkyLV4BU7-40" style="edgeStyle=orthogonalEdgeStyle;rounded=0;orthogonalLoop=1;jettySize=auto;html=1;exitX=0.5;exitY=1;exitDx=0;exitDy=0;entryX=0.5;entryY=0;entryDx=0;entryDy=0;strokeWidth=2;" parent="1" source="O5yFB1qFTjXJkyLV4BU7-39" target="O5yFB1qFTjXJkyLV4BU7-38" edge="1">
          <mxGeometry relative="1" as="geometry" />
        </mxCell>
        <mxCell id="O5yFB1qFTjXJkyLV4BU7-39" value="&lt;span style=&quot;font-size: 24px; font-family: 宋体; background-color: transparent; color: light-dark(rgb(0, 0, 0), rgb(255, 255, 255));&quot;&gt;保存任务现场&lt;/span&gt;" style="rounded=0;whiteSpace=wrap;html=1;strokeWidth=2;fillColor=none;" parent="1" vertex="1">
          <mxGeometry x="265" y="540" width="120" height="60" as="geometry" />
        </mxCell>
        <mxCell id="O5yFB1qFTjXJkyLV4BU7-46" style="edgeStyle=orthogonalEdgeStyle;rounded=0;orthogonalLoop=1;jettySize=auto;html=1;exitX=0.5;exitY=1;exitDx=0;exitDy=0;entryX=0.5;entryY=0;entryDx=0;entryDy=0;strokeWidth=2;" parent="1" source="O5yFB1qFTjXJkyLV4BU7-42" target="O5yFB1qFTjXJkyLV4BU7-43" edge="1">
          <mxGeometry relative="1" as="geometry" />
        </mxCell>
        <mxCell id="O5yFB1qFTjXJkyLV4BU7-42" value="&lt;font face=&quot;宋体&quot;&gt;&lt;span style=&quot;font-size: 24px;&quot;&gt;唤醒阻塞任务&lt;/span&gt;&lt;/font&gt;" style="rounded=0;whiteSpace=wrap;html=1;strokeWidth=2;fillColor=none;" parent="1" vertex="1">
          <mxGeometry x="250" y="40" width="150" height="60" as="geometry" />
        </mxCell>
        <mxCell id="O5yFB1qFTjXJkyLV4BU7-44" style="edgeStyle=orthogonalEdgeStyle;rounded=0;orthogonalLoop=1;jettySize=auto;html=1;exitX=0.5;exitY=1;exitDx=0;exitDy=0;entryX=0.5;entryY=0;entryDx=0;entryDy=0;strokeWidth=2;" parent="1" source="O5yFB1qFTjXJkyLV4BU7-43" target="2" edge="1">
          <mxGeometry relative="1" as="geometry" />
        </mxCell>
        <mxCell id="O5yFB1qFTjXJkyLV4BU7-47" value="&lt;font style=&quot;font-size: 24px;&quot; face=&quot;宋体&quot;&gt;是&lt;/font&gt;" style="edgeLabel;html=1;align=center;verticalAlign=middle;resizable=0;points=[];" parent="O5yFB1qFTjXJkyLV4BU7-44" vertex="1" connectable="0">
          <mxGeometry x="-0.3471" y="1" relative="1" as="geometry">
            <mxPoint x="22" y="1" as="offset" />
          </mxGeometry>
        </mxCell>
        <mxCell id="O5yFB1qFTjXJkyLV4BU7-49" style="edgeStyle=orthogonalEdgeStyle;rounded=0;orthogonalLoop=1;jettySize=auto;html=1;exitX=1;exitY=0.5;exitDx=0;exitDy=0;entryX=0;entryY=0.5;entryDx=0;entryDy=0;strokeWidth=2;" parent="1" source="O5yFB1qFTjXJkyLV4BU7-43" target="O5yFB1qFTjXJkyLV4BU7-48" edge="1">
          <mxGeometry relative="1" as="geometry" />
        </mxCell>
        <mxCell id="O5yFB1qFTjXJkyLV4BU7-50" value="&lt;font style=&quot;font-size: 24px;&quot; face=&quot;宋体&quot;&gt;否&lt;/font&gt;" style="edgeLabel;html=1;align=center;verticalAlign=middle;resizable=0;points=[];" parent="O5yFB1qFTjXJkyLV4BU7-49" vertex="1" connectable="0">
          <mxGeometry x="-0.1897" y="-2" relative="1" as="geometry">
            <mxPoint as="offset" />
          </mxGeometry>
        </mxCell>
        <mxCell id="O5yFB1qFTjXJkyLV4BU7-43" value="&lt;font face=&quot;宋体&quot;&gt;&lt;span style=&quot;font-size: 24px;&quot;&gt;任务&lt;/span&gt;&lt;/font&gt;&lt;span style=&quot;font-size: 24px; font-family: 宋体; background-color: transparent; color: light-dark(rgb(0, 0, 0), rgb(255, 255, 255));&quot;&gt;是否&lt;/span&gt;&lt;div&gt;&lt;span style=&quot;font-size: 24px; font-family: 宋体; background-color: transparent; color: light-dark(rgb(0, 0, 0), rgb(255, 255, 255));&quot;&gt;为高优先级&lt;/span&gt;&lt;/div&gt;" style="rhombus;whiteSpace=wrap;html=1;strokeWidth=2;align=center;" parent="1" vertex="1">
          <mxGeometry x="210" y="140" width="230" height="120" as="geometry" />
        </mxCell>
        <mxCell id="O5yFB1qFTjXJkyLV4BU7-48" value="&lt;font style=&quot;font-size: 24px;&quot; face=&quot;宋体&quot;&gt;不产生&lt;/font&gt;&lt;div&gt;&lt;font style=&quot;font-size: 24px;&quot; face=&quot;宋体&quot;&gt;中断&lt;/font&gt;&lt;/div&gt;" style="rounded=0;whiteSpace=wrap;html=1;strokeWidth=2;fillColor=none;" parent="1" vertex="1">
          <mxGeometry x="530" y="170" width="120" height="60" as="geometry" />
        </mxCell>
      </root>
    </mxGraphModel>
  </diagram>
</mxfile>
